G75*
G70*
%OFA0B0*%
%FSLAX24Y24*%
%IPPOS*%
%LPD*%
%AMOC8*
5,1,8,0,0,1.08239X$1,22.5*
%
%ADD10C,0.0060*%
%ADD11C,0.0050*%
%ADD12C,0.0040*%
%ADD13R,0.0150X0.0200*%
%ADD14C,0.0120*%
D10*
X001100Y001108D02*
X001100Y001308D01*
X001100Y001108D02*
X001300Y001108D01*
X001900Y001108D02*
X002100Y001108D01*
X002100Y001308D01*
X002100Y001908D02*
X002100Y002108D01*
X001900Y002108D01*
X001300Y002108D02*
X001100Y002108D01*
X001100Y001908D01*
X001100Y002608D02*
X001100Y002808D01*
X001100Y002608D02*
X001300Y002608D01*
X001900Y002608D02*
X002100Y002608D01*
X002100Y002808D01*
X002100Y003408D02*
X002100Y003608D01*
X001900Y003608D01*
X001300Y003608D02*
X001100Y003608D01*
X001100Y003408D01*
X001100Y004108D02*
X001300Y004108D01*
X001100Y004108D02*
X001100Y004308D01*
X001900Y004108D02*
X002100Y004108D01*
X002100Y004308D01*
X002100Y004908D02*
X002100Y005108D01*
X001900Y005108D01*
X001300Y005108D02*
X001100Y005108D01*
X001100Y004908D01*
X001100Y006108D02*
X001300Y006108D01*
X001100Y006108D02*
X001100Y006308D01*
X001900Y006108D02*
X002100Y006108D01*
X002100Y006308D01*
X003100Y006258D02*
X003100Y008958D01*
X003102Y008975D01*
X003106Y008992D01*
X003113Y009008D01*
X003123Y009022D01*
X003136Y009035D01*
X003150Y009045D01*
X003166Y009052D01*
X003183Y009056D01*
X003200Y009058D01*
X004000Y009058D01*
X004017Y009056D01*
X004034Y009052D01*
X004050Y009045D01*
X004064Y009035D01*
X004077Y009022D01*
X004087Y009008D01*
X004094Y008992D01*
X004098Y008975D01*
X004100Y008958D01*
X004100Y006258D01*
X004098Y006241D01*
X004094Y006224D01*
X004087Y006208D01*
X004077Y006194D01*
X004064Y006181D01*
X004050Y006171D01*
X004034Y006164D01*
X004017Y006160D01*
X004000Y006158D01*
X003200Y006158D01*
X003183Y006160D01*
X003166Y006164D01*
X003150Y006171D01*
X003136Y006181D01*
X003123Y006194D01*
X003113Y006208D01*
X003106Y006224D01*
X003102Y006241D01*
X003100Y006258D01*
X002100Y006908D02*
X002100Y007108D01*
X001900Y007108D01*
X001300Y007108D02*
X001100Y007108D01*
X001100Y006908D01*
X001100Y007608D02*
X001100Y007808D01*
X001100Y007608D02*
X001300Y007608D01*
X001900Y007608D02*
X002100Y007608D01*
X002100Y007808D01*
X003600Y007738D02*
X003600Y008208D01*
X002100Y008408D02*
X002100Y008608D01*
X001900Y008608D01*
X001300Y008608D02*
X001100Y008608D01*
X001100Y008408D01*
X001100Y009108D02*
X001300Y009108D01*
X001100Y009108D02*
X001100Y009308D01*
X001900Y009108D02*
X002100Y009108D01*
X002100Y009308D01*
X002100Y009908D02*
X002100Y010108D01*
X001900Y010108D01*
X001300Y010108D02*
X001100Y010108D01*
X001100Y009908D01*
X003600Y007488D02*
X003600Y007008D01*
X007150Y007008D02*
X007150Y006208D01*
X007152Y006191D01*
X007156Y006174D01*
X007163Y006158D01*
X007173Y006144D01*
X007186Y006131D01*
X007200Y006121D01*
X007216Y006114D01*
X007233Y006110D01*
X007250Y006108D01*
X009950Y006108D01*
X009967Y006110D01*
X009984Y006114D01*
X010000Y006121D01*
X010014Y006131D01*
X010027Y006144D01*
X010037Y006158D01*
X010044Y006174D01*
X010048Y006191D01*
X010050Y006208D01*
X010050Y007008D01*
X010048Y007025D01*
X010044Y007042D01*
X010037Y007058D01*
X010027Y007072D01*
X010014Y007085D01*
X010000Y007095D01*
X009984Y007102D01*
X009967Y007106D01*
X009950Y007108D01*
X007250Y007108D01*
X007233Y007106D01*
X007216Y007102D01*
X007200Y007095D01*
X007186Y007085D01*
X007173Y007072D01*
X007163Y007058D01*
X007156Y007042D01*
X007152Y007025D01*
X007150Y007008D01*
X008000Y006608D02*
X008480Y006608D01*
X008730Y006608D02*
X009200Y006608D01*
X009130Y005779D02*
X009450Y005779D01*
X009557Y005672D01*
X009557Y005245D01*
X009450Y005138D01*
X009130Y005138D01*
X009130Y005779D01*
X009775Y005459D02*
X009881Y005565D01*
X010095Y005565D01*
X010202Y005459D01*
X010202Y005352D01*
X009775Y005352D01*
X009775Y005245D02*
X009775Y005459D01*
X010419Y005565D02*
X010419Y005138D01*
X010095Y005138D02*
X009881Y005138D01*
X009775Y005245D01*
X010419Y005352D02*
X010633Y005565D01*
X010739Y005565D01*
X010956Y005459D02*
X011063Y005565D01*
X011276Y005565D01*
X011383Y005459D01*
X011383Y005352D01*
X010956Y005352D01*
X010956Y005245D02*
X010956Y005459D01*
X011601Y005352D02*
X011921Y005565D01*
X011601Y005352D02*
X011921Y005138D01*
X011601Y005138D02*
X011601Y005779D01*
X012782Y005672D02*
X012782Y005245D01*
X012889Y005138D01*
X013103Y005138D01*
X013209Y005245D01*
X013209Y005459D01*
X012996Y005459D01*
X013427Y005459D02*
X013534Y005565D01*
X013747Y005565D01*
X013854Y005459D01*
X013854Y005245D01*
X013747Y005138D01*
X013534Y005138D01*
X013427Y005245D01*
X013427Y005459D01*
X014072Y005565D02*
X014392Y005565D01*
X014499Y005459D01*
X014499Y005138D01*
X014716Y005245D02*
X014823Y005138D01*
X015143Y005138D01*
X015143Y005031D02*
X015036Y004925D01*
X014930Y004925D01*
X014893Y004779D02*
X014786Y004672D01*
X014893Y004779D02*
X015107Y004779D01*
X015213Y004672D01*
X015213Y004565D01*
X014786Y004138D01*
X015213Y004138D01*
X014571Y004138D02*
X014464Y004138D01*
X014464Y004245D01*
X014571Y004245D01*
X014571Y004138D01*
X014247Y004138D02*
X013820Y004138D01*
X014247Y004565D01*
X014247Y004672D01*
X014140Y004779D01*
X013926Y004779D01*
X013820Y004672D01*
X013066Y004779D02*
X013066Y004138D01*
X012853Y004138D02*
X013280Y004138D01*
X013497Y004138D02*
X013497Y004245D01*
X013604Y004245D01*
X013604Y004138D01*
X013497Y004138D01*
X012635Y004565D02*
X012422Y004138D01*
X012208Y004565D01*
X012853Y004565D02*
X013066Y004779D01*
X014072Y005138D02*
X014072Y005565D01*
X014716Y005565D02*
X014716Y005245D01*
X015361Y005245D02*
X015361Y005459D01*
X015467Y005565D01*
X015681Y005565D01*
X015788Y005459D01*
X015788Y005352D01*
X015361Y005352D01*
X015361Y005245D02*
X015467Y005138D01*
X015681Y005138D01*
X016005Y005245D02*
X016112Y005138D01*
X016325Y005138D01*
X016432Y005245D01*
X016432Y005459D01*
X016325Y005565D01*
X016112Y005565D01*
X016005Y005459D01*
X016005Y005245D01*
X015143Y005031D02*
X015143Y005565D01*
X013209Y005672D02*
X013103Y005779D01*
X012889Y005779D01*
X012782Y005672D01*
X011063Y005138D02*
X010956Y005245D01*
X011063Y005138D02*
X011276Y005138D01*
X011346Y004779D02*
X011346Y004138D01*
X011026Y004138D01*
X010919Y004245D01*
X010919Y004459D01*
X011026Y004565D01*
X011346Y004565D01*
X010702Y004565D02*
X010381Y004565D01*
X010275Y004459D01*
X010275Y004245D01*
X010381Y004138D01*
X010702Y004138D01*
X010702Y004779D01*
X010057Y004459D02*
X009950Y004565D01*
X009737Y004565D01*
X009630Y004459D01*
X009630Y004245D01*
X009737Y004138D01*
X009950Y004138D01*
X010057Y004245D01*
X010057Y004459D01*
X013200Y008208D02*
X013350Y008208D01*
X013400Y008258D01*
X014800Y008258D01*
X014850Y008208D01*
X015000Y008208D01*
X015017Y008210D01*
X015034Y008214D01*
X015050Y008221D01*
X015064Y008231D01*
X015077Y008244D01*
X015087Y008258D01*
X015094Y008274D01*
X015098Y008291D01*
X015100Y008308D01*
X015100Y008908D01*
X015098Y008925D01*
X015094Y008942D01*
X015087Y008958D01*
X015077Y008972D01*
X015064Y008985D01*
X015050Y008995D01*
X015034Y009002D01*
X015017Y009006D01*
X015000Y009008D01*
X014850Y009008D01*
X014800Y008958D01*
X013400Y008958D01*
X013350Y009008D01*
X013200Y009008D01*
X013183Y009006D01*
X013166Y009002D01*
X013150Y008995D01*
X013136Y008985D01*
X013123Y008972D01*
X013113Y008958D01*
X013106Y008942D01*
X013102Y008925D01*
X013100Y008908D01*
X013100Y008308D01*
X013102Y008291D01*
X013106Y008274D01*
X013113Y008258D01*
X013123Y008244D01*
X013136Y008231D01*
X013150Y008221D01*
X013166Y008214D01*
X013183Y008210D01*
X013200Y008208D01*
X024100Y008408D02*
X024100Y007808D01*
X024102Y007791D01*
X024106Y007774D01*
X024113Y007758D01*
X024123Y007744D01*
X024136Y007731D01*
X024150Y007721D01*
X024166Y007714D01*
X024183Y007710D01*
X024200Y007708D01*
X024350Y007708D01*
X024400Y007758D01*
X025800Y007758D01*
X025850Y007708D01*
X026000Y007708D01*
X026017Y007710D01*
X026034Y007714D01*
X026050Y007721D01*
X026064Y007731D01*
X026077Y007744D01*
X026087Y007758D01*
X026094Y007774D01*
X026098Y007791D01*
X026100Y007808D01*
X026100Y008408D01*
X026098Y008425D01*
X026094Y008442D01*
X026087Y008458D01*
X026077Y008472D01*
X026064Y008485D01*
X026050Y008495D01*
X026034Y008502D01*
X026017Y008506D01*
X026000Y008508D01*
X025850Y008508D01*
X025800Y008458D01*
X024400Y008458D01*
X024350Y008508D01*
X024200Y008508D01*
X024183Y008506D01*
X024166Y008502D01*
X024150Y008495D01*
X024136Y008485D01*
X024123Y008472D01*
X024113Y008458D01*
X024106Y008442D01*
X024102Y008425D01*
X024100Y008408D01*
X038600Y008308D02*
X038600Y008108D01*
X038800Y008108D01*
X039400Y008108D02*
X039600Y008108D01*
X039600Y008308D01*
X039600Y008908D02*
X039600Y009108D01*
X039400Y009108D01*
X038800Y009108D02*
X038600Y009108D01*
X038600Y008908D01*
X038600Y009608D02*
X038800Y009608D01*
X038600Y009608D02*
X038600Y009808D01*
X039400Y009608D02*
X039600Y009608D01*
X039600Y009808D01*
X039600Y010408D02*
X039600Y010608D01*
X039400Y010608D01*
X038800Y010608D02*
X038600Y010608D01*
X038600Y010408D01*
X038600Y007608D02*
X038600Y007408D01*
X038600Y007608D02*
X038800Y007608D01*
X039400Y007608D02*
X039600Y007608D01*
X039600Y007408D01*
X039600Y006808D02*
X039600Y006608D01*
X039400Y006608D01*
X038800Y006608D02*
X038600Y006608D01*
X038600Y006808D01*
X038600Y006108D02*
X038600Y005908D01*
X038600Y006108D02*
X038800Y006108D01*
X039400Y006108D02*
X039600Y006108D01*
X039600Y005908D01*
X039600Y005308D02*
X039600Y005108D01*
X039400Y005108D01*
X038800Y005108D02*
X038600Y005108D01*
X038600Y005308D01*
X038600Y003608D02*
X038600Y003408D01*
X038600Y003608D02*
X038800Y003608D01*
X039400Y003608D02*
X039600Y003608D01*
X039600Y003408D01*
X039600Y002808D02*
X039600Y002608D01*
X039400Y002608D01*
X038800Y002608D02*
X038600Y002608D01*
X038600Y002808D01*
X038600Y002108D02*
X038600Y001908D01*
X038600Y002108D02*
X038800Y002108D01*
X039400Y002108D02*
X039600Y002108D01*
X039600Y001908D01*
X039600Y001308D02*
X039600Y001108D01*
X039400Y001108D01*
X038800Y001108D02*
X038600Y001108D01*
X038600Y001308D01*
D11*
X038269Y001439D02*
X038269Y002778D01*
X036931Y002778D01*
X036931Y001439D01*
X038269Y001439D01*
X039725Y001438D02*
X039725Y001212D01*
X040175Y001212D01*
X040175Y001438D01*
X040100Y001513D01*
X039800Y001513D01*
X039725Y001438D01*
X039875Y001673D02*
X039725Y001823D01*
X040175Y001823D01*
X040175Y001673D02*
X040175Y001973D01*
X038475Y002708D02*
X038400Y002633D01*
X038475Y002708D02*
X038475Y002858D01*
X038400Y002933D01*
X038250Y002933D01*
X038175Y002858D01*
X038175Y002783D01*
X038250Y002633D01*
X038025Y002633D01*
X038025Y002933D01*
X038025Y003094D02*
X038325Y003094D01*
X038475Y003244D01*
X038325Y003394D01*
X038025Y003394D01*
X038175Y003554D02*
X038025Y003704D01*
X038475Y003704D01*
X038475Y003554D02*
X038475Y003854D01*
X039725Y003831D02*
X040175Y004132D01*
X040175Y004292D02*
X039725Y004292D01*
X039725Y004132D02*
X040175Y003831D01*
X040175Y004292D02*
X040175Y004592D01*
X040175Y004752D02*
X039875Y004752D01*
X039725Y004902D01*
X039875Y005052D01*
X040175Y005052D01*
X039950Y005052D02*
X039950Y004752D01*
X039725Y005212D02*
X039725Y005513D01*
X039725Y005556D02*
X039725Y005406D01*
X039800Y005331D01*
X039875Y005331D01*
X039950Y005406D01*
X039950Y005556D01*
X040025Y005632D01*
X040100Y005632D01*
X040175Y005556D01*
X040175Y005406D01*
X040100Y005331D01*
X040175Y005363D02*
X039725Y005363D01*
X039725Y005556D02*
X039800Y005632D01*
X039875Y005673D02*
X039725Y005823D01*
X040175Y005823D01*
X040175Y005867D02*
X040175Y006017D01*
X040100Y006092D01*
X040175Y005973D02*
X040175Y005673D01*
X040100Y005792D02*
X040175Y005867D01*
X040100Y005792D02*
X039800Y005792D01*
X039725Y005867D01*
X039725Y006017D01*
X039800Y006092D01*
X039725Y006252D02*
X040175Y006252D01*
X040175Y006552D01*
X040175Y006712D02*
X039725Y006712D01*
X039950Y006788D02*
X040175Y007013D01*
X040175Y007173D02*
X040175Y007473D01*
X040175Y007323D02*
X039725Y007323D01*
X039875Y007173D01*
X039725Y007013D02*
X040025Y006712D01*
X039950Y007871D02*
X039950Y008096D01*
X040025Y008171D01*
X040100Y008171D01*
X040175Y008096D01*
X040175Y007871D01*
X039725Y007871D01*
X039725Y008096D01*
X039800Y008171D01*
X039875Y008171D01*
X039950Y008096D01*
X039725Y008331D02*
X040175Y008331D01*
X040175Y008632D01*
X040175Y008792D02*
X039875Y008792D01*
X039725Y008942D01*
X039875Y009092D01*
X040175Y009092D01*
X040175Y009252D02*
X039725Y009252D01*
X040175Y009552D01*
X039725Y009552D01*
X039725Y009712D02*
X040175Y009712D01*
X040025Y009712D02*
X039725Y010013D01*
X039875Y010173D02*
X039725Y010323D01*
X040175Y010323D01*
X040175Y010173D02*
X040175Y010473D01*
X040175Y010013D02*
X039950Y009788D01*
X038475Y009665D02*
X038025Y009665D01*
X038025Y009815D02*
X038025Y009514D01*
X038025Y009354D02*
X038400Y009354D01*
X038475Y009279D01*
X038475Y009129D01*
X038400Y009054D01*
X038025Y009054D01*
X038100Y008894D02*
X038025Y008819D01*
X038025Y008669D01*
X038100Y008594D01*
X038400Y008594D01*
X038475Y008669D01*
X038475Y008819D01*
X038400Y008894D01*
X038100Y008894D01*
X038100Y008433D02*
X038025Y008358D01*
X038025Y008208D01*
X038100Y008133D01*
X038175Y008133D01*
X038250Y008208D01*
X038250Y008358D01*
X038325Y008433D01*
X038400Y008433D01*
X038475Y008358D01*
X038475Y008208D01*
X038400Y008133D01*
X039950Y008792D02*
X039950Y009092D01*
X022183Y008402D02*
X019017Y008402D01*
X019017Y004071D01*
X022183Y004071D01*
X022183Y008402D01*
X019320Y007900D02*
X019322Y007931D01*
X019328Y007962D01*
X019337Y007992D01*
X019350Y008021D01*
X019367Y008048D01*
X019387Y008072D01*
X019409Y008094D01*
X019435Y008113D01*
X019462Y008129D01*
X019491Y008141D01*
X019521Y008150D01*
X019552Y008155D01*
X019584Y008156D01*
X019615Y008153D01*
X019646Y008146D01*
X019676Y008136D01*
X019704Y008122D01*
X019730Y008104D01*
X019754Y008084D01*
X019775Y008060D01*
X019794Y008035D01*
X019809Y008007D01*
X019820Y007978D01*
X019828Y007947D01*
X019832Y007916D01*
X019832Y007884D01*
X019828Y007853D01*
X019820Y007822D01*
X019809Y007793D01*
X019794Y007765D01*
X019775Y007740D01*
X019754Y007716D01*
X019730Y007696D01*
X019704Y007678D01*
X019676Y007664D01*
X019646Y007654D01*
X019615Y007647D01*
X019584Y007644D01*
X019552Y007645D01*
X019521Y007650D01*
X019491Y007659D01*
X019462Y007671D01*
X019435Y007687D01*
X019409Y007706D01*
X019387Y007728D01*
X019367Y007752D01*
X019350Y007779D01*
X019337Y007808D01*
X019328Y007838D01*
X019322Y007869D01*
X019320Y007900D01*
X008036Y007659D02*
X008036Y007583D01*
X007735Y007283D01*
X008036Y007283D01*
X007575Y007358D02*
X007500Y007283D01*
X007350Y007283D01*
X007275Y007358D01*
X007275Y007659D01*
X007350Y007734D01*
X007500Y007734D01*
X007575Y007659D01*
X007735Y007659D02*
X007810Y007734D01*
X007961Y007734D01*
X008036Y007659D01*
X006880Y008297D02*
X006880Y006919D01*
X004320Y006919D01*
X004320Y008297D01*
X006880Y008297D01*
X002675Y008292D02*
X002675Y008592D01*
X002675Y008752D02*
X002375Y008752D01*
X002225Y008902D01*
X002375Y009052D01*
X002675Y009052D01*
X002450Y009052D02*
X002450Y008752D01*
X002225Y008292D02*
X002675Y008292D01*
X002600Y008132D02*
X002675Y008056D01*
X002675Y007831D01*
X002225Y007831D01*
X002225Y008056D01*
X002300Y008132D01*
X002375Y008132D01*
X002450Y008056D01*
X002450Y007831D01*
X002450Y008056D02*
X002525Y008132D01*
X002600Y008132D01*
X000975Y008169D02*
X000525Y008169D01*
X000525Y008094D02*
X000525Y008244D01*
X000525Y008401D02*
X000975Y008701D01*
X000525Y008701D01*
X000525Y008401D02*
X000975Y008401D01*
X000975Y008244D02*
X000975Y008094D01*
X000900Y007933D02*
X000975Y007858D01*
X000975Y007708D01*
X000900Y007633D01*
X000750Y007708D02*
X000750Y007858D01*
X000825Y007933D01*
X000900Y007933D01*
X000600Y007933D02*
X000525Y007858D01*
X000525Y007708D01*
X000600Y007633D01*
X000675Y007633D01*
X000750Y007708D01*
X002225Y006973D02*
X002525Y006673D01*
X002550Y006583D02*
X002475Y006508D01*
X002475Y006358D01*
X002550Y006283D01*
X002850Y006283D01*
X002925Y006358D01*
X002925Y006508D01*
X002850Y006583D01*
X002675Y006513D02*
X002675Y006212D01*
X002225Y006212D01*
X002300Y006052D02*
X002225Y005977D01*
X002225Y005827D01*
X002300Y005752D01*
X002600Y005752D01*
X002675Y005827D01*
X002675Y005977D01*
X002600Y006052D01*
X002600Y005592D02*
X002675Y005517D01*
X002675Y005367D01*
X002600Y005292D01*
X002450Y005367D02*
X002450Y005517D01*
X002525Y005592D01*
X002600Y005592D01*
X002300Y005592D02*
X002225Y005517D01*
X002225Y005367D01*
X002300Y005292D01*
X002375Y005292D01*
X002450Y005367D01*
X002225Y004973D02*
X002225Y004673D01*
X002375Y004513D02*
X002675Y004513D01*
X002450Y004513D02*
X002450Y004212D01*
X002375Y004212D02*
X002675Y004212D01*
X002675Y004052D02*
X002675Y003752D01*
X002225Y003752D01*
X002225Y003592D02*
X002675Y003292D01*
X002675Y003592D02*
X002225Y003292D01*
X000975Y003244D02*
X000825Y003094D01*
X000525Y003094D01*
X000525Y002933D02*
X000525Y002633D01*
X000750Y002633D01*
X000675Y002783D01*
X000675Y002858D01*
X000750Y002933D01*
X000900Y002933D01*
X000975Y002858D01*
X000975Y002708D01*
X000900Y002633D01*
X000900Y002354D02*
X000600Y002354D01*
X000525Y002279D01*
X000525Y002054D01*
X000975Y002054D01*
X000975Y002279D01*
X000900Y002354D01*
X002431Y002778D02*
X003769Y002778D01*
X003769Y001439D01*
X002431Y001439D01*
X002431Y002778D01*
X000975Y003244D02*
X000825Y003394D01*
X000525Y003394D01*
X002225Y004363D02*
X002375Y004212D01*
X002225Y004363D02*
X002375Y004513D01*
X002225Y004823D02*
X002675Y004823D01*
X002675Y006673D02*
X002225Y006673D01*
X002450Y006748D02*
X002675Y006973D01*
X002475Y006894D02*
X002925Y006894D01*
X002925Y006744D02*
X002925Y007044D01*
X002625Y006744D02*
X002475Y006894D01*
X002675Y009212D02*
X002225Y009212D01*
X002675Y009513D01*
X002225Y009513D01*
X002225Y009673D02*
X002675Y009673D01*
X002525Y009673D02*
X002225Y009973D01*
X002450Y009748D02*
X002675Y009973D01*
X007431Y002778D02*
X008769Y002778D01*
X008769Y001439D01*
X007431Y001439D01*
X007431Y002778D01*
X012431Y002778D02*
X012431Y001439D01*
X013769Y001439D01*
X013769Y002778D01*
X012431Y002778D01*
X017431Y002778D02*
X017431Y001439D01*
X018769Y001439D01*
X018769Y002778D01*
X017431Y002778D01*
X022431Y002778D02*
X022431Y001439D01*
X023769Y001439D01*
X023769Y002778D01*
X022431Y002778D01*
X027931Y002778D02*
X027931Y001439D01*
X029269Y001439D01*
X029269Y002778D01*
X027931Y002778D01*
X032431Y002778D02*
X033769Y002778D01*
X033769Y001439D01*
X032431Y001439D01*
X032431Y002778D01*
X039725Y001052D02*
X040175Y001052D01*
X039725Y000752D01*
X040175Y000752D01*
X040100Y000592D02*
X039950Y000592D01*
X039950Y000442D01*
X040100Y000592D02*
X040175Y000517D01*
X040175Y000367D01*
X040100Y000292D01*
X039800Y000292D01*
X039725Y000367D01*
X039725Y000517D01*
X039800Y000592D01*
X000975Y001208D02*
X000975Y001358D01*
X000900Y001433D01*
X000750Y001433D01*
X000750Y001283D01*
X000600Y001133D02*
X000900Y001133D01*
X000975Y001208D01*
X000600Y001133D02*
X000525Y001208D01*
X000525Y001358D01*
X000600Y001433D01*
X000525Y001594D02*
X000975Y001894D01*
X000525Y001894D01*
X000525Y001594D02*
X000975Y001594D01*
D12*
X005573Y005477D02*
X005573Y006091D01*
X005497Y006014D02*
X005650Y006014D01*
X005727Y005937D01*
X005880Y005860D02*
X006034Y006014D01*
X006034Y005553D01*
X006187Y005553D02*
X005880Y005553D01*
X005727Y005630D02*
X005727Y005707D01*
X005650Y005784D01*
X005497Y005784D01*
X005420Y005860D01*
X005420Y005937D01*
X005497Y006014D01*
X005266Y006014D02*
X005266Y005630D01*
X005190Y005553D01*
X005036Y005553D01*
X004960Y005630D01*
X004960Y006014D01*
X005420Y005630D02*
X005497Y005553D01*
X005650Y005553D01*
X005727Y005630D01*
X006341Y005630D02*
X006341Y005553D01*
X006341Y005630D02*
X006648Y005937D01*
X006648Y006014D01*
X006341Y006014D01*
X002898Y009020D02*
X002591Y009020D01*
X002437Y009173D02*
X002361Y009097D01*
X002130Y009097D01*
X002130Y009557D01*
X002361Y009557D01*
X002437Y009480D01*
X002437Y009173D01*
X003051Y009097D02*
X003358Y009097D01*
X003512Y009097D02*
X003742Y009097D01*
X003819Y009173D01*
X003819Y009480D01*
X003742Y009557D01*
X003512Y009557D01*
X003512Y009097D01*
X003051Y009097D02*
X003051Y009557D01*
X003972Y009480D02*
X003972Y009173D01*
X004049Y009097D01*
X004202Y009097D01*
X004279Y009173D01*
X004279Y009480D01*
X004202Y009557D01*
X004049Y009557D01*
X003972Y009480D01*
X004432Y009480D02*
X004432Y009173D01*
X004509Y009097D01*
X004663Y009097D01*
X004739Y009173D01*
X004739Y009480D01*
X004663Y009557D01*
X004509Y009557D01*
X004432Y009480D01*
X004893Y009557D02*
X005123Y009557D01*
X005200Y009480D01*
X005200Y009173D01*
X005123Y009097D01*
X004893Y009097D01*
X004893Y009557D01*
X005353Y009557D02*
X005583Y009557D01*
X005660Y009480D01*
X005660Y009173D01*
X005583Y009097D01*
X005353Y009097D01*
X005353Y009557D01*
X005814Y009557D02*
X005814Y009097D01*
X006121Y009097D01*
X006274Y009097D02*
X006504Y009097D01*
X006581Y009173D01*
X006581Y009480D01*
X006504Y009557D01*
X006274Y009557D01*
X006274Y009097D01*
X006734Y009173D02*
X006811Y009097D01*
X006965Y009097D01*
X007041Y009173D01*
X007041Y009480D01*
X006965Y009557D01*
X006811Y009557D01*
X006734Y009480D01*
X006734Y009173D01*
X001977Y009173D02*
X001977Y009480D01*
X001900Y009557D01*
X001670Y009557D01*
X001670Y009097D01*
X001900Y009097D01*
X001977Y009173D01*
X001517Y009173D02*
X001517Y009480D01*
X001440Y009557D01*
X001286Y009557D01*
X001210Y009480D01*
X001210Y009173D01*
X001286Y009097D01*
X001440Y009097D01*
X001517Y009173D01*
X013120Y009138D02*
X013120Y009489D01*
X013295Y009489D01*
X013354Y009430D01*
X013354Y009313D01*
X013295Y009255D01*
X013120Y009255D01*
X013237Y009255D02*
X013354Y009138D01*
X013479Y009197D02*
X013537Y009138D01*
X013654Y009138D01*
X013713Y009197D01*
X013713Y009255D01*
X013654Y009313D01*
X013479Y009313D01*
X013479Y009197D01*
X013479Y009313D02*
X013596Y009430D01*
X013713Y009489D01*
X022667Y008278D02*
X022744Y008124D01*
X022897Y007971D01*
X022897Y008201D01*
X022974Y008278D01*
X023051Y008278D01*
X023127Y008201D01*
X023127Y008048D01*
X023051Y007971D01*
X022897Y007971D01*
X022974Y007818D02*
X022897Y007741D01*
X022897Y007587D01*
X022820Y007511D01*
X022744Y007511D01*
X022667Y007587D01*
X022667Y007741D01*
X022744Y007818D01*
X022590Y007664D02*
X023204Y007664D01*
X023127Y007587D02*
X023051Y007511D01*
X023127Y007587D02*
X023127Y007741D01*
X023051Y007818D01*
X022974Y007818D01*
X023051Y007357D02*
X022667Y007357D01*
X023051Y007357D02*
X023127Y007280D01*
X023127Y007127D01*
X023051Y007050D01*
X022667Y007050D01*
X025402Y007228D02*
X025402Y007579D01*
X025577Y007579D01*
X025635Y007520D01*
X025635Y007403D01*
X025577Y007345D01*
X025402Y007345D01*
X025519Y007345D02*
X025635Y007228D01*
X025761Y007228D02*
X025994Y007228D01*
X025878Y007228D02*
X025878Y007579D01*
X025761Y007462D01*
D13*
X026175Y008108D03*
X024025Y008108D03*
X015175Y008608D03*
X013025Y008608D03*
D14*
X008730Y006858D02*
X008730Y006608D01*
X008730Y006358D01*
X008480Y006358D02*
X008480Y006608D01*
X008480Y006858D01*
X003850Y007488D02*
X003600Y007488D01*
X003350Y007488D01*
X003350Y007738D02*
X003600Y007738D01*
X003850Y007738D01*
M02*
