%
M48
M72
T01C0.0320
T02C0.0360
T03C0.0440
%
T01
X15600Y5600
X16600Y5600
X17600Y5600
X18600Y5600
X19600Y5600
X20600Y5600
X21600Y5600
X22600Y5600
X23600Y5600
X24600Y5600
X25600Y5600
X26600Y5600
X27600Y5600
X28600Y5600
X28600Y8600
X27600Y8600
X26600Y8600
X25600Y8600
X24600Y8600
X23600Y8600
X22600Y8600
X21600Y8600
X20600Y8600
X19600Y8600
X18600Y8600
X17600Y8600
X16600Y8600
X15600Y8600
X20100Y9600
X20600Y10600
X23100Y9600
X23600Y10600
T02
X9100Y8100
X5100Y8100
X5100Y5100
X9100Y5100
T03
X1600Y1600
X1600Y3100
X1600Y4600
X1600Y6100
X1600Y7600
X1600Y9100
X1600Y10600
X36100Y10600
X36100Y9100
X36100Y7600
X36100Y6100
X36100Y4600
X36100Y3100
X36100Y1600
M30
