G75*
G70*
%OFA0B0*%
%FSLAX24Y24*%
%IPPOS*%
%LPD*%
%AMOC8*
5,1,8,0,0,1.08239X$1,22.5*
%
%ADD10C,0.0640*%
%ADD11R,0.0277X0.0474*%
%ADD12R,0.0474X0.0867*%
%ADD13R,0.1261X0.0867*%
%ADD14OC8,0.0640*%
%ADD15OC8,0.1080*%
%ADD16OC8,0.0680*%
D10*
X015600Y005320D02*
X015600Y005880D01*
X016600Y005880D02*
X016600Y005320D01*
X017600Y005320D02*
X017600Y005880D01*
X018600Y005880D02*
X018600Y005320D01*
X019600Y005320D02*
X019600Y005880D01*
X020600Y005880D02*
X020600Y005320D01*
X021600Y005320D02*
X021600Y005880D01*
X022600Y005880D02*
X022600Y005320D01*
X023600Y005320D02*
X023600Y005880D01*
X024600Y005880D02*
X024600Y005320D01*
X025600Y005320D02*
X025600Y005880D01*
X026600Y005880D02*
X026600Y005320D01*
X027600Y005320D02*
X027600Y005880D01*
X028600Y005880D02*
X028600Y005320D01*
X028600Y008320D02*
X028600Y008880D01*
X027600Y008880D02*
X027600Y008320D01*
X026600Y008320D02*
X026600Y008880D01*
X025600Y008880D02*
X025600Y008320D01*
X024600Y008320D02*
X024600Y008880D01*
X023600Y008880D02*
X023600Y008320D01*
X022600Y008320D02*
X022600Y008880D01*
X021600Y008880D02*
X021600Y008320D01*
X020600Y008320D02*
X020600Y008880D01*
X019600Y008880D02*
X019600Y008320D01*
X018600Y008320D02*
X018600Y008880D01*
X017600Y008880D02*
X017600Y008320D01*
X016600Y008320D02*
X016600Y008880D01*
X015600Y008880D02*
X015600Y008320D01*
D11*
X003206Y001411D03*
X003600Y001411D03*
X003994Y001411D03*
X003994Y002789D03*
X003600Y002789D03*
X003206Y002789D03*
X010206Y002789D03*
X010600Y002789D03*
X010994Y002789D03*
X010994Y001411D03*
X010600Y001411D03*
X010206Y001411D03*
X018206Y001411D03*
X018600Y001411D03*
X018994Y001411D03*
X018994Y002789D03*
X018600Y002789D03*
X018206Y002789D03*
X024706Y002789D03*
X025100Y002789D03*
X025494Y002789D03*
X025494Y001411D03*
X025100Y001411D03*
X024706Y001411D03*
X033706Y001411D03*
X034100Y001411D03*
X034494Y001411D03*
X034494Y002789D03*
X034100Y002789D03*
X033706Y002789D03*
D12*
X008006Y006017D03*
X007100Y006017D03*
X006194Y006017D03*
D13*
X007100Y008183D03*
D14*
X020100Y009600D03*
X020600Y010600D03*
X023100Y009600D03*
X023600Y010600D03*
D15*
X036100Y010600D03*
X036100Y009100D03*
X036100Y007600D03*
X036100Y006100D03*
X036100Y004600D03*
X036100Y003100D03*
X036100Y001600D03*
X001600Y001600D03*
X001600Y003100D03*
X001600Y004600D03*
X001600Y006100D03*
X001600Y007600D03*
X001600Y009100D03*
X001600Y010600D03*
D16*
X005100Y008100D03*
X009100Y008100D03*
X009100Y005100D03*
X005100Y005100D03*
M02*
