G75*
G70*
%OFA0B0*%
%FSLAX24Y24*%
%IPPOS*%
%LPD*%
%AMOC8*
5,1,8,0,0,1.08239X$1,22.5*
%
%ADD10C,0.0060*%
%ADD11R,0.0150X0.0200*%
%ADD12C,0.0160*%
D10*
X001100Y001100D02*
X001100Y001300D01*
X001100Y001100D02*
X001300Y001100D01*
X001900Y001100D02*
X002100Y001100D01*
X002100Y001300D01*
X002100Y001900D02*
X002100Y002100D01*
X001900Y002100D01*
X001300Y002100D02*
X001100Y002100D01*
X001100Y001900D01*
X001100Y002600D02*
X001300Y002600D01*
X001100Y002600D02*
X001100Y002800D01*
X001900Y002600D02*
X002100Y002600D01*
X002100Y002800D01*
X002100Y003400D02*
X002100Y003600D01*
X001900Y003600D01*
X001300Y003600D02*
X001100Y003600D01*
X001100Y003400D01*
X001100Y004100D02*
X001100Y004300D01*
X001100Y004100D02*
X001300Y004100D01*
X001900Y004100D02*
X002100Y004100D01*
X002100Y004300D01*
X002100Y004900D02*
X002100Y005100D01*
X001900Y005100D01*
X001300Y005100D02*
X001100Y005100D01*
X001100Y004900D01*
X001100Y005600D02*
X001300Y005600D01*
X001100Y005600D02*
X001100Y005800D01*
X001900Y005600D02*
X002100Y005600D01*
X002100Y005800D01*
X002100Y006400D02*
X002100Y006600D01*
X001900Y006600D01*
X001300Y006600D02*
X001100Y006600D01*
X001100Y006400D01*
X001100Y007100D02*
X001100Y007300D01*
X001100Y007100D02*
X001300Y007100D01*
X001900Y007100D02*
X002100Y007100D01*
X002100Y007300D01*
X002100Y007900D02*
X002100Y008100D01*
X001900Y008100D01*
X001300Y008100D02*
X001100Y008100D01*
X001100Y007900D01*
X001100Y008600D02*
X001300Y008600D01*
X001100Y008600D02*
X001100Y008800D01*
X001900Y008600D02*
X002100Y008600D01*
X002100Y008800D01*
X002100Y009400D02*
X002100Y009600D01*
X001900Y009600D01*
X001300Y009600D02*
X001100Y009600D01*
X001100Y009400D01*
X001100Y010100D02*
X001300Y010100D01*
X001100Y010100D02*
X001100Y010300D01*
X001900Y010100D02*
X002100Y010100D01*
X002100Y010300D01*
X002100Y010900D02*
X002100Y011100D01*
X001900Y011100D01*
X001300Y011100D02*
X001100Y011100D01*
X001100Y010900D01*
X004600Y008600D02*
X005600Y008600D01*
X005617Y008598D01*
X005634Y008594D01*
X005650Y008587D01*
X005664Y008577D01*
X005677Y008564D01*
X005687Y008550D01*
X005694Y008534D01*
X005698Y008517D01*
X005700Y008500D01*
X005700Y004700D01*
X005698Y004683D01*
X005694Y004666D01*
X005687Y004650D01*
X005677Y004636D01*
X005664Y004623D01*
X005650Y004613D01*
X005634Y004606D01*
X005617Y004602D01*
X005600Y004600D01*
X004600Y004600D01*
X004583Y004602D01*
X004566Y004606D01*
X004550Y004613D01*
X004536Y004623D01*
X004523Y004636D01*
X004513Y004650D01*
X004506Y004666D01*
X004502Y004683D01*
X004500Y004700D01*
X004500Y008500D01*
X004502Y008517D01*
X004506Y008534D01*
X004513Y008550D01*
X004523Y008564D01*
X004536Y008577D01*
X004550Y008587D01*
X004566Y008594D01*
X004583Y008598D01*
X004600Y008600D01*
X005100Y007600D02*
X005100Y006800D01*
X005100Y006400D02*
X005100Y005600D01*
X008500Y004700D02*
X008500Y008500D01*
X008502Y008517D01*
X008506Y008534D01*
X008513Y008550D01*
X008523Y008564D01*
X008536Y008577D01*
X008550Y008587D01*
X008566Y008594D01*
X008583Y008598D01*
X008600Y008600D01*
X009600Y008600D01*
X009617Y008598D01*
X009634Y008594D01*
X009650Y008587D01*
X009664Y008577D01*
X009677Y008564D01*
X009687Y008550D01*
X009694Y008534D01*
X009698Y008517D01*
X009700Y008500D01*
X009700Y004700D01*
X009698Y004683D01*
X009694Y004666D01*
X009687Y004650D01*
X009677Y004636D01*
X009664Y004623D01*
X009650Y004613D01*
X009634Y004606D01*
X009617Y004602D01*
X009600Y004600D01*
X008600Y004600D01*
X008583Y004602D01*
X008566Y004606D01*
X008550Y004613D01*
X008536Y004623D01*
X008523Y004636D01*
X008513Y004650D01*
X008506Y004666D01*
X008502Y004683D01*
X008500Y004700D01*
X009100Y005600D02*
X009100Y006400D01*
X009100Y006800D02*
X009100Y007600D01*
X014800Y007350D02*
X014800Y008200D01*
X029400Y008200D01*
X029400Y006000D01*
X014800Y006000D01*
X014800Y006850D01*
X014830Y006852D01*
X014860Y006857D01*
X014889Y006866D01*
X014916Y006879D01*
X014942Y006894D01*
X014966Y006913D01*
X014987Y006934D01*
X015006Y006958D01*
X015021Y006984D01*
X015034Y007011D01*
X015043Y007040D01*
X015048Y007070D01*
X015050Y007100D01*
X015048Y007130D01*
X015043Y007160D01*
X015034Y007189D01*
X015021Y007216D01*
X015006Y007242D01*
X014987Y007266D01*
X014966Y007287D01*
X014942Y007306D01*
X014916Y007321D01*
X014889Y007334D01*
X014860Y007343D01*
X014830Y007348D01*
X014800Y007350D01*
X020600Y009300D02*
X020600Y009900D01*
X020602Y009917D01*
X020606Y009934D01*
X020613Y009950D01*
X020623Y009964D01*
X020636Y009977D01*
X020650Y009987D01*
X020666Y009994D01*
X020683Y009998D01*
X020700Y010000D01*
X020850Y010000D01*
X020900Y009950D01*
X022300Y009950D01*
X022350Y010000D01*
X022500Y010000D01*
X022517Y009998D01*
X022534Y009994D01*
X022550Y009987D01*
X022564Y009977D01*
X022577Y009964D01*
X022587Y009950D01*
X022594Y009934D01*
X022598Y009917D01*
X022600Y009900D01*
X022600Y009300D01*
X022598Y009283D01*
X022594Y009266D01*
X022587Y009250D01*
X022577Y009236D01*
X022564Y009223D01*
X022550Y009213D01*
X022534Y009206D01*
X022517Y009202D01*
X022500Y009200D01*
X022350Y009200D01*
X022300Y009250D01*
X020900Y009250D01*
X020850Y009200D01*
X020700Y009200D01*
X020683Y009202D01*
X020666Y009206D01*
X020650Y009213D01*
X020636Y009223D01*
X020623Y009236D01*
X020613Y009250D01*
X020606Y009266D01*
X020602Y009283D01*
X020600Y009300D01*
X021200Y010200D02*
X021350Y010200D01*
X021400Y010250D01*
X022800Y010250D01*
X022850Y010200D01*
X023000Y010200D01*
X023017Y010202D01*
X023034Y010206D01*
X023050Y010213D01*
X023064Y010223D01*
X023077Y010236D01*
X023087Y010250D01*
X023094Y010266D01*
X023098Y010283D01*
X023100Y010300D01*
X023100Y010900D01*
X023098Y010917D01*
X023094Y010934D01*
X023087Y010950D01*
X023077Y010964D01*
X023064Y010977D01*
X023050Y010987D01*
X023034Y010994D01*
X023017Y010998D01*
X023000Y011000D01*
X022850Y011000D01*
X022800Y010950D01*
X021400Y010950D01*
X021350Y011000D01*
X021200Y011000D01*
X021183Y010998D01*
X021166Y010994D01*
X021150Y010987D01*
X021136Y010977D01*
X021123Y010964D01*
X021113Y010950D01*
X021106Y010934D01*
X021102Y010917D01*
X021100Y010900D01*
X021100Y010300D01*
X021102Y010283D01*
X021106Y010266D01*
X021113Y010250D01*
X021123Y010236D01*
X021136Y010223D01*
X021150Y010213D01*
X021166Y010206D01*
X021183Y010202D01*
X021200Y010200D01*
X035600Y010100D02*
X035600Y010300D01*
X035600Y010100D02*
X035800Y010100D01*
X036400Y010100D02*
X036600Y010100D01*
X036600Y010300D01*
X036600Y010900D02*
X036600Y011100D01*
X036400Y011100D01*
X035800Y011100D02*
X035600Y011100D01*
X035600Y010900D01*
X035600Y009600D02*
X035600Y009400D01*
X035600Y009600D02*
X035800Y009600D01*
X036400Y009600D02*
X036600Y009600D01*
X036600Y009400D01*
X036600Y008800D02*
X036600Y008600D01*
X036400Y008600D01*
X035800Y008600D02*
X035600Y008600D01*
X035600Y008800D01*
X035600Y008100D02*
X035600Y007900D01*
X035600Y008100D02*
X035800Y008100D01*
X036400Y008100D02*
X036600Y008100D01*
X036600Y007900D01*
X036600Y007300D02*
X036600Y007100D01*
X036400Y007100D01*
X035800Y007100D02*
X035600Y007100D01*
X035600Y007300D01*
X035600Y006600D02*
X035600Y006400D01*
X035600Y006600D02*
X035800Y006600D01*
X036400Y006600D02*
X036600Y006600D01*
X036600Y006400D01*
X036600Y005800D02*
X036600Y005600D01*
X036400Y005600D01*
X035800Y005600D02*
X035600Y005600D01*
X035600Y005800D01*
X035600Y005100D02*
X035600Y004900D01*
X035600Y005100D02*
X035800Y005100D01*
X036400Y005100D02*
X036600Y005100D01*
X036600Y004900D01*
X036600Y004300D02*
X036600Y004100D01*
X036400Y004100D01*
X035800Y004100D02*
X035600Y004100D01*
X035600Y004300D01*
X035600Y003600D02*
X035600Y003400D01*
X035600Y003600D02*
X035800Y003600D01*
X036400Y003600D02*
X036600Y003600D01*
X036600Y003400D01*
X036600Y002800D02*
X036600Y002600D01*
X036400Y002600D01*
X035800Y002600D02*
X035600Y002600D01*
X035600Y002800D01*
X035600Y002100D02*
X035600Y001900D01*
X035600Y002100D02*
X035800Y002100D01*
X036400Y002100D02*
X036600Y002100D01*
X036600Y001900D01*
X036600Y001300D02*
X036600Y001100D01*
X036400Y001100D01*
X035800Y001100D02*
X035600Y001100D01*
X035600Y001300D01*
D11*
X022675Y009600D03*
X020525Y009600D03*
X021025Y010600D03*
X023175Y010600D03*
D12*
X009450Y006800D02*
X009100Y006800D01*
X008750Y006800D01*
X008750Y006400D02*
X009100Y006400D01*
X009450Y006400D01*
X005450Y006400D02*
X005100Y006400D01*
X004750Y006400D01*
X004750Y006800D02*
X005100Y006800D01*
X005450Y006800D01*
M02*
