G75*
G70*
%OFA0B0*%
%FSLAX24Y24*%
%IPPOS*%
%LPD*%
%AMOC8*
5,1,8,0,0,1.08239X$1,22.5*
%
%ADD10C,0.0560*%
%ADD11OC8,0.0560*%
%ADD12OC8,0.1000*%
%ADD13OC8,0.0600*%
%ADD14C,0.0160*%
D10*
X015600Y005320D02*
X015600Y005880D01*
X016600Y005880D02*
X016600Y005320D01*
X017600Y005320D02*
X017600Y005880D01*
X018600Y005880D02*
X018600Y005320D01*
X019600Y005320D02*
X019600Y005880D01*
X020600Y005880D02*
X020600Y005320D01*
X021600Y005320D02*
X021600Y005880D01*
X022600Y005880D02*
X022600Y005320D01*
X023600Y005320D02*
X023600Y005880D01*
X024600Y005880D02*
X024600Y005320D01*
X025600Y005320D02*
X025600Y005880D01*
X026600Y005880D02*
X026600Y005320D01*
X027600Y005320D02*
X027600Y005880D01*
X028600Y005880D02*
X028600Y005320D01*
X028600Y008320D02*
X028600Y008880D01*
X027600Y008880D02*
X027600Y008320D01*
X026600Y008320D02*
X026600Y008880D01*
X025600Y008880D02*
X025600Y008320D01*
X024600Y008320D02*
X024600Y008880D01*
X023600Y008880D02*
X023600Y008320D01*
X022600Y008320D02*
X022600Y008880D01*
X021600Y008880D02*
X021600Y008320D01*
X020600Y008320D02*
X020600Y008880D01*
X019600Y008880D02*
X019600Y008320D01*
X018600Y008320D02*
X018600Y008880D01*
X017600Y008880D02*
X017600Y008320D01*
X016600Y008320D02*
X016600Y008880D01*
X015600Y008880D02*
X015600Y008320D01*
D11*
X020100Y009600D03*
X020600Y010600D03*
X023100Y009600D03*
X023600Y010600D03*
D12*
X001600Y001600D03*
X001600Y003100D03*
X001600Y004600D03*
X001600Y006100D03*
X001600Y007600D03*
X001600Y009100D03*
X001600Y010600D03*
X036100Y010600D03*
X036100Y009100D03*
X036100Y007600D03*
X036100Y006100D03*
X036100Y004600D03*
X036100Y003100D03*
X036100Y001600D03*
D13*
X009100Y005100D03*
X005100Y005100D03*
X005100Y008100D03*
X009100Y008100D03*
D14*
X009100Y007100D01*
X010100Y006100D01*
X014600Y006100D01*
X015600Y007100D01*
X017100Y007100D01*
X016600Y007600D01*
X016600Y008600D01*
X016600Y009600D02*
X017600Y008600D01*
X018600Y008600D02*
X017100Y010100D01*
X008600Y010100D01*
X004600Y006100D01*
X001600Y006100D01*
X003600Y003600D02*
X005100Y005100D01*
X007100Y003100D01*
X036100Y003100D01*
X036100Y004600D02*
X033100Y007600D01*
X026600Y007600D01*
X025600Y008600D01*
X025600Y009600D01*
X023600Y011600D01*
X006600Y011600D01*
X005600Y010600D01*
X001600Y010600D01*
X001600Y009100D02*
X004600Y009100D01*
X006600Y011100D01*
X018600Y011100D01*
X020100Y009600D01*
X020100Y009100D01*
X020600Y008600D01*
X019600Y008600D02*
X017600Y010600D01*
X006600Y010600D01*
X003600Y007600D01*
X001600Y007600D01*
X003600Y004600D02*
X008100Y009100D01*
X013600Y009100D01*
X014100Y009600D01*
X016600Y009600D01*
X020600Y010100D02*
X021600Y009100D01*
X021600Y008600D01*
X021600Y007600D01*
X021100Y007100D01*
X017100Y007100D01*
X015600Y006600D02*
X014600Y005600D01*
X009600Y005600D01*
X009100Y005100D01*
X003600Y004600D02*
X001600Y004600D01*
X003100Y003600D02*
X003600Y003600D01*
X003100Y003600D02*
X002600Y003100D01*
X001600Y003100D01*
X015600Y006600D02*
X024100Y006600D01*
X024600Y007100D01*
X024600Y008600D01*
X023600Y008600D02*
X023600Y010600D01*
X023100Y009600D02*
X023100Y009100D01*
X022600Y008600D01*
X026600Y008600D02*
X027600Y009600D01*
X035100Y009600D01*
X036100Y010600D01*
X020600Y010600D02*
X020600Y010100D01*
M02*
