%
M48
M72
T01C0.0320
T02C0.0440
T03C0.0472
%
T01
X3600Y6608
X7600Y6608
X9600Y6608
X12600Y8608
X15600Y8608
X23600Y8108
X26600Y8108
X3600Y8608
T02
X1600Y1608
X1600Y3108
X1600Y4608
X1600Y6608
X1600Y8108
X1600Y9608
X39100Y10108
X39100Y8608
X39100Y7108
X39100Y5608
X39100Y3108
X39100Y1608
T03
X20600Y6108
M30
