G75*
G70*
%OFA0B0*%
%FSLAX24Y24*%
%IPPOS*%
%LPD*%
%AMOC8*
5,1,8,0,0,1.08239X$1,22.5*
%
%ADD10C,0.0000*%
%ADD11R,0.0197X0.0394*%
%ADD12R,0.0394X0.0787*%
%ADD13R,0.1181X0.0787*%
%ADD14OC8,0.0560*%
%ADD15OC8,0.1000*%
%ADD16R,0.0453X0.0098*%
%ADD17R,0.0712X0.0712*%
%ADD18C,0.0160*%
D10*
X000100Y000108D02*
X000100Y011104D01*
X040470Y011104D01*
X040470Y000108D01*
X000100Y000108D01*
D11*
X002706Y001419D03*
X003100Y001419D03*
X003494Y001419D03*
X007706Y001419D03*
X008100Y001419D03*
X008494Y001419D03*
X012706Y001419D03*
X013100Y001419D03*
X013494Y001419D03*
X017706Y001419D03*
X018100Y001419D03*
X018494Y001419D03*
X022706Y001419D03*
X023100Y001419D03*
X023494Y001419D03*
X023494Y002797D03*
X023100Y002797D03*
X022706Y002797D03*
X018494Y002797D03*
X018100Y002797D03*
X017706Y002797D03*
X013494Y002797D03*
X013100Y002797D03*
X012706Y002797D03*
X008494Y002797D03*
X008100Y002797D03*
X007706Y002797D03*
X003494Y002797D03*
X003100Y002797D03*
X002706Y002797D03*
X028206Y002797D03*
X028600Y002797D03*
X028994Y002797D03*
X032706Y002797D03*
X033100Y002797D03*
X033494Y002797D03*
X037206Y002797D03*
X037600Y002797D03*
X037994Y002797D03*
X037994Y001419D03*
X037600Y001419D03*
X037206Y001419D03*
X033494Y001419D03*
X033100Y001419D03*
X032706Y001419D03*
X028994Y001419D03*
X028600Y001419D03*
X028206Y001419D03*
D12*
X006506Y008691D03*
X005600Y008691D03*
X004694Y008691D03*
D13*
X005600Y006526D03*
D14*
X003600Y006608D03*
X007600Y006608D03*
X009600Y006608D03*
X012600Y008608D03*
X015600Y008608D03*
X023600Y008108D03*
X026600Y008108D03*
X003600Y008608D03*
D15*
X001600Y008108D03*
X001600Y009608D03*
X001600Y006608D03*
X001600Y004608D03*
X001600Y003108D03*
X001600Y001608D03*
X039100Y001608D03*
X039100Y003108D03*
X039100Y005608D03*
X039100Y007108D03*
X039100Y008608D03*
X039100Y010108D03*
D16*
X022254Y008155D03*
X022254Y007900D03*
X022254Y007644D03*
X022254Y007388D03*
X022254Y007132D03*
X022254Y006876D03*
X022254Y006620D03*
X022254Y006364D03*
X022254Y006108D03*
X022254Y005852D03*
X022254Y005596D03*
X022254Y005341D03*
X022254Y005085D03*
X022254Y004829D03*
X022254Y004573D03*
X022254Y004317D03*
X018946Y004317D03*
X018946Y004573D03*
X018946Y004829D03*
X018946Y005085D03*
X018946Y005341D03*
X018946Y005596D03*
X018946Y005852D03*
X018946Y006108D03*
X018946Y006364D03*
X018946Y006620D03*
X018946Y006876D03*
X018946Y007132D03*
X018946Y007388D03*
X018946Y007644D03*
X018946Y007900D03*
X018946Y008155D03*
D17*
X020600Y006108D03*
D18*
X020600Y007608D01*
X020053Y008155D01*
X018946Y008155D01*
X018946Y007900D02*
X016309Y007900D01*
X015600Y008608D01*
X013600Y008608D02*
X013600Y008108D01*
X013100Y007608D01*
X010600Y007608D01*
X009600Y006608D01*
X009100Y006108D01*
X008100Y006108D01*
X006600Y004608D01*
X003600Y004608D01*
X002100Y003108D01*
X001600Y003108D01*
X002600Y003108D02*
X002600Y002904D01*
X002706Y002797D01*
X003100Y002797D02*
X003100Y003108D01*
X003600Y003608D01*
X006600Y003608D01*
X008100Y005108D01*
X011600Y005108D01*
X013368Y006876D01*
X018946Y006876D01*
X018946Y007132D02*
X013124Y007132D01*
X011600Y005608D01*
X008100Y005608D01*
X006600Y004108D01*
X003600Y004108D01*
X002600Y003108D01*
X003494Y002797D02*
X003805Y003108D01*
X006600Y003108D01*
X008100Y004608D01*
X011600Y004608D01*
X013600Y006608D01*
X019100Y006608D01*
X019088Y006620D01*
X018946Y006620D01*
X018946Y006364D02*
X016856Y006364D01*
X016100Y005608D01*
X013100Y005608D01*
X011600Y004108D01*
X008100Y004108D01*
X007600Y003608D01*
X007600Y002904D01*
X007706Y002797D01*
X008100Y002797D02*
X008100Y003108D01*
X008600Y003608D01*
X011600Y003608D01*
X013100Y005108D01*
X016100Y005108D01*
X017100Y006108D01*
X018946Y006108D01*
X018946Y005852D02*
X017344Y005852D01*
X016100Y004608D01*
X013100Y004608D01*
X011600Y003108D01*
X008805Y003108D01*
X008494Y002797D01*
X012600Y002904D02*
X012706Y002797D01*
X012600Y002904D02*
X012600Y003608D01*
X013100Y004108D01*
X016100Y004108D01*
X017588Y005596D01*
X018946Y005596D01*
X018946Y005341D02*
X017832Y005341D01*
X016100Y003608D01*
X013600Y003608D01*
X013100Y003108D01*
X013100Y002797D01*
X013494Y002797D02*
X013805Y003108D01*
X016100Y003108D01*
X018076Y005085D01*
X018946Y005085D01*
X018946Y004829D02*
X018320Y004829D01*
X017600Y004108D01*
X017600Y002904D01*
X017706Y002797D01*
X018100Y002797D02*
X018100Y004108D01*
X018565Y004573D01*
X018946Y004573D01*
X018946Y004317D02*
X018946Y003250D01*
X018494Y002797D01*
X022254Y003955D02*
X022600Y003608D01*
X022600Y002904D01*
X022706Y002797D01*
X023100Y002797D02*
X023100Y004108D01*
X022635Y004573D01*
X022254Y004573D01*
X022254Y004317D02*
X022254Y003955D01*
X022880Y004829D02*
X023600Y004108D01*
X023600Y002904D01*
X023494Y002797D01*
X025100Y003108D02*
X027895Y003108D01*
X028206Y002797D01*
X028600Y002797D02*
X028600Y003108D01*
X028100Y003608D01*
X025100Y003608D01*
X023368Y005341D01*
X022254Y005341D01*
X022254Y005596D02*
X023612Y005596D01*
X025100Y004108D01*
X028100Y004108D01*
X029100Y003108D01*
X029100Y002904D01*
X028994Y002797D01*
X029600Y003108D02*
X032600Y003108D01*
X032600Y002904D01*
X032706Y002797D01*
X033100Y002797D02*
X033100Y003108D01*
X032600Y003608D01*
X030100Y003608D01*
X028600Y005108D01*
X025100Y005108D01*
X024100Y006108D01*
X022254Y006108D01*
X022254Y005852D02*
X023856Y005852D01*
X025100Y004608D01*
X028100Y004608D01*
X029600Y003108D01*
X030100Y004108D02*
X032600Y004108D01*
X033600Y003108D01*
X033600Y002904D01*
X033494Y002797D01*
X035100Y002108D02*
X036517Y002108D01*
X037206Y002797D01*
X037600Y002797D02*
X037600Y003108D01*
X037100Y003608D01*
X034100Y003608D01*
X032600Y005108D01*
X030100Y005108D01*
X028600Y006608D01*
X025100Y006608D01*
X024832Y006876D01*
X022254Y006876D01*
X022254Y007132D02*
X028576Y007132D01*
X030100Y005608D01*
X033100Y005608D01*
X034600Y004108D01*
X037600Y004108D01*
X038100Y003608D01*
X038100Y002904D01*
X037994Y002797D01*
X035100Y002108D02*
X032600Y004608D01*
X030100Y004608D01*
X028600Y006108D01*
X025100Y006108D01*
X024588Y006620D01*
X022254Y006620D01*
X022254Y006364D02*
X024344Y006364D01*
X025100Y005608D01*
X028600Y005608D01*
X030100Y004108D01*
X025100Y003108D02*
X023124Y005085D01*
X022254Y005085D01*
X022254Y004829D02*
X022880Y004829D01*
X029320Y007388D02*
X030600Y006108D01*
X037100Y006108D01*
X038600Y004608D01*
X039600Y004608D01*
X040100Y005108D01*
X040100Y007608D01*
X039100Y008608D01*
X038100Y006608D02*
X039100Y005608D01*
X038100Y006608D02*
X031100Y006608D01*
X030065Y007644D01*
X022254Y007644D01*
X022254Y007900D02*
X023391Y007900D01*
X023600Y008108D01*
X022254Y008155D02*
X021647Y008155D01*
X021600Y008108D01*
X021600Y001419D01*
X018494Y001419D01*
X018100Y001419D01*
X017706Y001419D01*
X013494Y001419D01*
X013100Y001419D01*
X012706Y001419D01*
X008494Y001419D01*
X008100Y001419D01*
X007706Y001419D01*
X003494Y001419D01*
X003100Y001419D01*
X002706Y001419D01*
X001895Y000608D01*
X001100Y000608D01*
X000600Y001108D01*
X000600Y005108D01*
X001100Y005608D01*
X002100Y005608D01*
X002600Y006108D01*
X002600Y006608D01*
X003600Y007608D01*
X003600Y008608D01*
X003683Y008691D01*
X004694Y008691D01*
X005600Y008691D02*
X005600Y006526D01*
X005517Y006608D01*
X003600Y006608D01*
X001600Y006608D02*
X000600Y007608D01*
X000600Y010108D01*
X001100Y010608D01*
X012600Y010608D01*
X015565Y007644D01*
X018946Y007644D01*
X018946Y007388D02*
X015320Y007388D01*
X013100Y009608D01*
X003100Y009608D01*
X001600Y008108D01*
X006506Y008691D02*
X009683Y008691D01*
X010100Y009108D01*
X013100Y009108D01*
X013600Y008608D01*
X012600Y008608D02*
X010100Y008608D01*
X008100Y006608D01*
X007600Y006608D01*
X005683Y006608D01*
X005600Y006526D01*
X022254Y007388D02*
X029320Y007388D01*
X028994Y001419D02*
X028600Y001419D01*
X028206Y001419D01*
X023494Y001419D01*
X023100Y001419D01*
X022706Y001419D01*
X021600Y001419D01*
X028994Y001419D02*
X032706Y001419D01*
X033100Y001419D01*
X033494Y001419D01*
X037206Y001419D01*
X037600Y001419D01*
X037994Y001419D01*
M02*
