G75*
G70*
%OFA0B0*%
%FSLAX24Y24*%
%IPPOS*%
%LPD*%
%AMOC8*
5,1,8,0,0,1.08239X$1,22.5*
%
%ADD10R,0.0277X0.0474*%
%ADD11R,0.0474X0.0867*%
%ADD12R,0.1261X0.0867*%
%ADD13OC8,0.0640*%
%ADD14OC8,0.1080*%
%ADD15R,0.0533X0.0178*%
%ADD16R,0.0792X0.0792*%
D10*
X002706Y001419D03*
X003100Y001419D03*
X003494Y001419D03*
X007706Y001419D03*
X008100Y001419D03*
X008494Y001419D03*
X012706Y001419D03*
X013100Y001419D03*
X013494Y001419D03*
X017706Y001419D03*
X018100Y001419D03*
X018494Y001419D03*
X022706Y001419D03*
X023100Y001419D03*
X023494Y001419D03*
X023494Y002797D03*
X023100Y002797D03*
X022706Y002797D03*
X018494Y002797D03*
X018100Y002797D03*
X017706Y002797D03*
X013494Y002797D03*
X013100Y002797D03*
X012706Y002797D03*
X008494Y002797D03*
X008100Y002797D03*
X007706Y002797D03*
X003494Y002797D03*
X003100Y002797D03*
X002706Y002797D03*
X028206Y002797D03*
X028600Y002797D03*
X028994Y002797D03*
X032706Y002797D03*
X033100Y002797D03*
X033494Y002797D03*
X037206Y002797D03*
X037600Y002797D03*
X037994Y002797D03*
X037994Y001419D03*
X037600Y001419D03*
X037206Y001419D03*
X033494Y001419D03*
X033100Y001419D03*
X032706Y001419D03*
X028994Y001419D03*
X028600Y001419D03*
X028206Y001419D03*
D11*
X006506Y008691D03*
X005600Y008691D03*
X004694Y008691D03*
D12*
X005600Y006526D03*
D13*
X003600Y006608D03*
X007600Y006608D03*
X009600Y006608D03*
X012600Y008608D03*
X015600Y008608D03*
X023600Y008108D03*
X026600Y008108D03*
X003600Y008608D03*
D14*
X001600Y008108D03*
X001600Y009608D03*
X001600Y006608D03*
X001600Y004608D03*
X001600Y003108D03*
X001600Y001608D03*
X039100Y001608D03*
X039100Y003108D03*
X039100Y005608D03*
X039100Y007108D03*
X039100Y008608D03*
X039100Y010108D03*
D15*
X022254Y008155D03*
X022254Y007900D03*
X022254Y007644D03*
X022254Y007388D03*
X022254Y007132D03*
X022254Y006876D03*
X022254Y006620D03*
X022254Y006364D03*
X022254Y006108D03*
X022254Y005852D03*
X022254Y005596D03*
X022254Y005341D03*
X022254Y005085D03*
X022254Y004829D03*
X022254Y004573D03*
X022254Y004317D03*
X018946Y004317D03*
X018946Y004573D03*
X018946Y004829D03*
X018946Y005085D03*
X018946Y005341D03*
X018946Y005596D03*
X018946Y005852D03*
X018946Y006108D03*
X018946Y006364D03*
X018946Y006620D03*
X018946Y006876D03*
X018946Y007132D03*
X018946Y007388D03*
X018946Y007644D03*
X018946Y007900D03*
X018946Y008155D03*
D16*
X020600Y006108D03*
M02*
